<?xml version="1.0" encoding="UTF-8" standalone="no"?>
<!-- Created with Inkscape (http://www.inkscape.org/) -->

<svg
   xmlns:dc="http://purl.org/dc/elements/1.1/"
   xmlns:cc="http://creativecommons.org/ns#"
   xmlns:rdf="http://www.w3.org/1999/02/22-rdf-syntax-ns#"
   xmlns:svg="http://www.w3.org/2000/svg"
   xmlns="http://www.w3.org/2000/svg"
   xmlns:xlink="http://www.w3.org/1999/xlink"
   xmlns:sodipodi="http://sodipodi.sourceforge.net/DTD/sodipodi-0.dtd"
   xmlns:inkscape="http://www.inkscape.org/namespaces/inkscape"
   width="744.09448819"
   height="1052.3622047"
   id="svg3149"
   version="1.1"
   inkscape:version="0.48.1 r9760"
   sodipodi:docname="New document 3">
  <defs
     id="defs3151">
    <filter
       color-interpolation-filters="sRGB"
       inkscape:collect="always"
       id="filter4199">
      <feGaussianBlur
         inkscape:collect="always"
         stdDeviation="0.14003446"
         id="feGaussianBlur4201" />
    </filter>
    <radialGradient
       inkscape:collect="always"
       xlink:href="#linearGradient4147"
       id="radialGradient4153"
       cx="-345"
       cy="907.29327"
       fx="-345"
       fy="907.29327"
       r="145.342"
       gradientTransform="matrix(1.1008519,8.3742311e-8,-7.8467477e-8,1.0315744,34.793978,-28.647235)"
       gradientUnits="userSpaceOnUse" />
    <linearGradient
       id="linearGradient4147">
      <stop
         style="stop-color:#193e69;stop-opacity:1;"
         offset="0"
         id="stop4149" />
      <stop
         style="stop-color:#0f0f41;stop-opacity:1;"
         offset="1"
         id="stop4151" />
    </linearGradient>
    <filter
       color-interpolation-filters="sRGB"
       inkscape:collect="always"
       id="filter4157">
      <feGaussianBlur
         inkscape:collect="always"
         stdDeviation="3.5008616"
         id="feGaussianBlur4159" />
    </filter>
    <filter
       color-interpolation-filters="sRGB"
       inkscape:collect="always"
       id="filter4207"
       x="-0.013589448"
       width="1.0271789"
       y="-0.10259749"
       height="1.205195">
      <feGaussianBlur
         inkscape:collect="always"
         stdDeviation="1.6441584"
         id="feGaussianBlur4209" />
    </filter>
  </defs>
  <sodipodi:namedview
     id="base"
     pagecolor="#ffffff"
     bordercolor="#666666"
     borderopacity="1.0"
     inkscape:pageopacity="0.0"
     inkscape:pageshadow="2"
     inkscape:zoom="1.4"
     inkscape:cx="385.08446"
     inkscape:cy="480.57782"
     inkscape:document-units="px"
     inkscape:current-layer="layer1"
     showgrid="false"
     inkscape:window-width="1920"
     inkscape:window-height="1050"
     inkscape:window-x="0"
     inkscape:window-y="0"
     inkscape:window-maximized="1" />
  <metadata
     id="metadata3154">
    <rdf:RDF>
      <cc:Work
         rdf:about="">
        <dc:format>image/svg+xml</dc:format>
        <dc:type
           rdf:resource="http://purl.org/dc/dcmitype/StillImage" />
        <dc:title></dc:title>
      </cc:Work>
    </rdf:RDF>
  </metadata>
  <g
     inkscape:label="Layer 1"
     inkscape:groupmode="layer"
     id="layer1">
    <flowRoot
       transform="matrix(1.0296224,0,0,1.0296224,-212.68789,500.99952)"
       style="font-size:40.31529236px;font-style:normal;font-variant:normal;font-stretch:normal;text-align:start;line-height:125%;letter-spacing:0px;word-spacing:0px;writing-mode:lr-tb;text-anchor:start;opacity:0.5;fill:#000000;fill-opacity:1;stroke:none;filter:url(#filter4207);font-family:URW Gothic L;-inkscape-font-specification:URW Gothic L Book"
       id="flowRoot4121"
       xml:space="preserve"
       inkscape:export-filename="/home/timo/devela/tad/logoehdotus_1_hd.png"
       inkscape:export-xdpi="218.81209"
       inkscape:export-ydpi="218.81209"><flowRegion
         id="flowRegion4123"><rect
           style="font-size:40.31529236px;font-style:normal;font-variant:normal;font-stretch:normal;text-align:start;line-height:125%;writing-mode:lr-tb;text-anchor:start;font-family:URW Gothic L;-inkscape-font-specification:URW Gothic L Book"
           y="137.13863"
           x="247.41963"
           height="349.36569"
           width="904.91443"
           id="rect4125" /></flowRegion><flowPara
         id="flowPara4127">turku agile day</flowPara></flowRoot>    <rect
       style="fill:#20bf00;fill-opacity:0.53448277000000000;stroke:none;opacity:0.5"
       id="rect4173"
       width="250.60585"
       height="226.43842"
       x="71.035843"
       y="398.51773"
       rx="20"
       ry="20"
       inkscape:export-filename="/home/timo/devela/tad/logoehdotus_1_hd.png"
       inkscape:export-xdpi="218.81209"
       inkscape:export-ydpi="218.81209" />
    <path
       sodipodi:nodetypes="ssssssssscccsccsccscccscssccssccccc"
       inkscape:connector-curvature="0"
       id="path4155"
       d="m 67.047132,376.23952 c -11.08,-0.006 -20,8.92 -20,20 l 0,230.00003 c 0,11.08 8.92,19.9939 20,20 l 249.999998,0.1378 c 11.08,0.01 20,-8.92 20,-20 l 0,-230.00001 c 0,-11.08 -8.92,-19.99389 -20,-20 z m 39.999998,40 20,0 0,30 c 25,0 25.00014,-10.08613 50,-10 l 40,0.13782 0,149.99999 c 22.15739,-0.58909 40.77979,-8.72901 51.90625,-27.03125 17.71214,-29.13517 8.74077,-68.55381 -21.9375,-85.375 l 10.03125,-17.59374 c 40.11372,21.99474 51.75344,74.31023 28.59375,112.40624 -14.71193,24.20008 -39.26134,36.99887 -68.59375,37.59377 -6.58621,2e-4 -13.41382,-2e-4 -20,0 l 0,-150.00001 -20,-0.13782 c -24.99942,-0.17227 -25,10 -50,10 l 0,69.99999 c 0,15 5.00016,19.93184 20,20 l 20,0 0,20 -20,0 c -30,0 -40.14109,-10.00033 -40,-40 l 0,-69.99999 -19.999998,0 0,-20 19.999998,0 z"
       style="opacity:0.4;fill:#000000;fill-opacity:1;stroke:none;filter:url(#filter4157)"
       inkscape:export-filename="/home/timo/devela/tad/logoehdotus_1_hd.png"
       inkscape:export-xdpi="218.81209"
       inkscape:export-ydpi="218.81209" />
    <g
       transform="matrix(1.0296224,0,0,1.0296224,-212.68789,500.99952)"
       style="font-size:40.31529236px;font-style:normal;font-variant:normal;font-stretch:normal;text-align:start;line-height:125%;letter-spacing:0px;word-spacing:0px;writing-mode:lr-tb;text-anchor:start;fill:#000000;fill-opacity:1;stroke:#ffffff;stroke-width:0.19424596;stroke-miterlimit:4;stroke-opacity:0.58823529;font-family:URW Gothic L;-inkscape-font-specification:URW Gothic L Book"
       id="flowRoot4035">
      <path
         inkscape:connector-curvature="0"
         d="m 252.64724,177.63792 2.98333,0 0,-19.35134 4.95878,0 0,-2.70113 -4.95878,0 0,-7.74053 -2.98333,0 0,7.74053 -4.75721,0 0,2.70113 4.75721,0 0,19.35134"
         id="path3063" />
      <path
         inkscape:connector-curvature="0"
         d="m 283.07898,155.58545 -2.98333,0 0,11.3286 c 0,2.70112 -0.40315,4.39437 -1.3304,5.76509 -1.24977,1.73355 -3.22523,2.74144 -5.5232,2.74144 -2.45923,0 -4.55563,-1.00789 -5.56351,-2.78176 -0.68536,-1.12883 -1.04819,-2.9027 -1.04819,-5.16036 l 0,-11.89301 -2.98334,0 0,11.89301 c 0,3.26554 0.56442,5.56351 1.73356,7.17612 1.65293,2.29797 4.31374,3.50744 7.61959,3.50744 3.4268,0 5.60383,-1.20947 7.09549,-3.9509 l 0,3.4268 2.98333,0 0,-22.05247"
         id="path3065" />
      <path
         inkscape:connector-curvature="0"
         d="m 288.1354,177.63792 2.98333,0 0,-12.86058 c 0,-4.11216 2.0964,-6.36982 6.24887,-6.77297 l 0,-2.94302 c -3.1849,0.16126 -5.07972,1.24978 -6.24887,3.66869 l 0,-3.14459 -2.98333,0 0,22.05247"
         id="path3067" />
      <path
         inkscape:connector-curvature="0"
         d="m 300.26149,177.63792 2.98333,0 0,-4.55563 3.46712,-4.27342 7.33738,8.82905 3.70901,0 -9.15157,-10.96576 8.58715,-11.08671 -3.66869,0 -10.2804,13.38468 0,-21.12521 -2.98333,0 0,29.793"
         id="path3069" />
      <path
         inkscape:connector-curvature="0"
         d="m 339.92984,155.58545 -2.98333,0 0,11.3286 c 0,2.70112 -0.40315,4.39437 -1.3304,5.76509 -1.24978,1.73355 -3.22523,2.74144 -5.5232,2.74144 -2.45923,0 -4.55563,-1.00789 -5.56351,-2.78176 -0.68536,-1.12883 -1.0482,-2.9027 -1.0482,-5.16036 l 0,-11.89301 -2.98333,0 0,11.89301 c 0,3.26554 0.56442,5.56351 1.73356,7.17612 1.65292,2.29797 4.31374,3.50744 7.61959,3.50744 3.4268,0 5.60383,-1.20947 7.09549,-3.9509 l 0,3.4268 2.98333,0 0,-22.05247"
         id="path3071" />
      <path
         inkscape:connector-curvature="0"
         d="m 378.62308,155.58545 -2.98334,0 0,3.91058 c -2.17702,-3.06395 -4.87815,-4.43468 -8.7081,-4.43468 -6.6117,0 -11.6108,4.99911 -11.6108,11.61081 0,6.57138 5.03941,11.48986 11.81238,11.48986 3.74932,0 6.16824,-1.24978 8.50652,-4.39437 l 0,3.87027 2.98334,0 0,-22.05247 m -11.61081,2.21734 c 4.83783,0 8.62747,3.78964 8.62747,8.70811 0,4.99909 -3.70901,8.90968 -8.46621,8.90968 -4.99909,0 -8.82905,-3.91059 -8.82905,-8.95 0,-4.79751 3.87028,-8.66779 8.66779,-8.66779"
         id="path3073" />
      <path
         inkscape:connector-curvature="0"
         d="m 405.7792,155.58545 -2.98333,0 0,3.91058 c -2.21734,-3.02364 -4.91847,-4.43468 -8.62747,-4.43468 -6.45044,0 -11.28828,4.99911 -11.28828,11.65112 0,6.45044 5.03941,11.44955 11.48985,11.44955 3.9509,0 6.69235,-1.61262 8.4259,-4.9991 l 0,1.49166 c 0,2.17703 -0.24189,3.54775 -0.88694,4.91847 -1.16914,2.53986 -3.82995,3.99121 -7.21643,3.99121 -2.45923,0 -4.35406,-0.72567 -5.92635,-2.21734 -0.76599,-0.68536 -1.20946,-1.3304 -2.17703,-3.02364 l -2.9027,0 c 1.61261,5.16035 5.5232,7.98242 11.08671,7.98242 3.82995,0 7.05518,-1.45135 8.94999,-3.95089 1.49167,-2.01577 2.05608,-4.35406 2.05608,-8.66779 l 0,-18.10157 m -11.44954,2.21734 c 4.7572,0 8.46621,3.74933 8.46621,8.54684 0,5.16036 -3.62838,9.07095 -8.4259,9.07095 -4.83783,0 -8.46621,-3.82996 -8.46621,-8.95 0,-5.03941 3.54775,-8.66779 8.4259,-8.66779"
         id="path3075" />
      <path
         inkscape:connector-curvature="0"
         d="m 410.89231,177.63792 2.98333,0 0,-22.05247 -2.98333,0 0,22.05247 m 0,-24.71328 2.98333,0 0,-5.07972 -2.98333,0 0,5.07972"
         id="path3077" />
      <path
         inkscape:connector-curvature="0"
         d="m 418.92388,177.63792 2.98333,0 0,-29.793 -2.98333,0 0,29.793"
         id="path3079" />
      <path
         inkscape:connector-curvature="0"
         d="m 449.04822,167.59941 c 0,-3.02365 -0.40316,-4.87815 -1.49167,-6.81329 -1.97545,-3.50742 -5.80541,-5.72477 -9.99819,-5.72477 -6.41013,0 -11.44954,5.03942 -11.44954,11.44955 0,6.53107 5.12004,11.65112 11.65111,11.65112 2.82207,0 5.48289,-1.0482 7.49865,-2.94302 1.57229,-1.49167 2.62049,-3.02365 3.22522,-4.83784 l -3.10427,0 c -1.24978,3.02365 -4.35406,5.03942 -7.70023,5.03942 -4.5153,0 -8.34526,-3.46712 -8.58715,-7.82117 l 19.95607,0 m -19.87544,-2.70113 c 0.8063,-4.2331 4.15248,-7.09549 8.34526,-7.09549 4.27342,0 7.53896,2.70113 8.54685,7.09549 l -16.89211,0"
         id="path3081" />
      <path
         inkscape:connector-curvature="0"
         d="m 486.89357,147.84492 -2.98333,0 0,11.24796 c -2.17702,-2.62049 -5.20068,-4.03153 -8.66779,-4.03153 -6.65202,0 -11.73175,4.99911 -11.73175,11.57049 0,6.53107 5.20068,11.53018 12.01396,11.53018 3.66869,0 6.16824,-1.33041 8.38558,-4.51532 l 0,3.99122 2.98333,0 0,-29.793 m -11.73175,9.95787 c 4.87815,0 8.86937,3.91059 8.86937,8.74842 0,4.83783 -3.87028,8.86937 -8.58716,8.86937 -5.03941,0 -8.90968,-3.87028 -8.90968,-8.90968 0,-4.83783 3.82996,-8.70811 8.62747,-8.70811"
         id="path3083" />
      <path
         inkscape:connector-curvature="0"
         d="m 514.45097,155.58545 -2.98333,0 0,3.91058 c -2.17702,-3.06395 -4.87815,-4.43468 -8.7081,-4.43468 -6.6117,0 -11.61081,4.99911 -11.61081,11.61081 0,6.57138 5.03942,11.48986 11.81238,11.48986 3.74932,0 6.16825,-1.24978 8.50653,-4.39437 l 0,3.87027 2.98333,0 0,-22.05247 m -11.6108,2.21734 c 4.83783,0 8.62747,3.78964 8.62747,8.70811 0,4.99909 -3.70901,8.90968 -8.46621,8.90968 -4.99909,0 -8.82905,-3.91059 -8.82905,-8.95 0,-4.79751 3.87027,-8.66779 8.66779,-8.66779"
         id="path3085" />
      <path
         inkscape:connector-curvature="0"
         d="m 522.33639,185.37845 3.18491,0 12.73963,-29.793 -3.18491,0 -7.45833,17.57747 -6.97454,-17.57747 -3.26554,0 8.54684,21.32679 -3.58806,8.46621"
         id="path3087" />
    </g>
    <path
       style="fill:url(#radialGradient4153);fill-opacity:1;stroke:#0f0f41;stroke-width:0.40000001;stroke-miterlimit:4;stroke-opacity:1;stroke-dasharray:none;filter:url(#filter4199)"
       d="m 67.047132,374.23952 c -11.08,-0.006 -20,8.92 -20,20 l 0,230.00003 c 0,11.08 8.92,19.9939 20,20 l 249.999998,0.1378 c 11.08,0.01 20,-8.92 20,-20 l 0,-230.00001 c 0,-11.08 -8.92,-19.99389 -20,-20 z m 39.999998,40 20,0 0,30 c 25,0 25.00014,-10.08613 50,-10 l 40,0.13782 0,149.99999 c 22.15739,-0.58909 40.77979,-8.72901 51.90625,-27.03125 17.71214,-29.13517 8.74077,-68.55381 -21.9375,-85.375 l 10.03125,-17.59374 c 40.11372,21.99474 51.75344,74.31023 28.59375,112.40624 -14.71193,24.20008 -39.26134,36.99887 -68.59375,37.59377 -6.58621,2e-4 -13.41382,-2e-4 -20,0 l 0,-150.00001 -20,-0.13782 c -24.99942,-0.17227 -25,10 -50,10 l 0,69.99999 c 0,15 5.00016,19.93184 20,20 l 20,0 0,20 -20,0 c -30,0 -40.14109,-10.00033 -40,-40 l 0,-69.99999 -19.999998,0 0,-20 19.999998,0 z"
       id="rect4043"
       inkscape:connector-curvature="0"
       sodipodi:nodetypes="ssssssssscccsccsccscccscssccssccccc"
       inkscape:export-filename="/home/timo/devela/tad/logoehdotus_1_hd.png"
       inkscape:export-xdpi="218.81209"
       inkscape:export-ydpi="218.81209" />
    <g
       transform="matrix(1.0296224,0,0,1.0296224,157.31211,500.99952)"
       style="font-size:40.31529236px;font-style:normal;font-variant:normal;font-stretch:normal;text-align:start;line-height:125%;letter-spacing:0px;word-spacing:0px;writing-mode:lr-tb;text-anchor:start;fill:#000000;fill-opacity:1;stroke:none;font-family:URW Gothic L;-inkscape-font-specification:URW Gothic L Book"
       id="flowRoot4243">
      <path
         inkscape:connector-curvature="0"
         d="m 252.64724,177.63792 2.98333,0 0,-19.35134 4.95878,0 0,-2.70113 -4.95878,0 0,-7.74053 -2.98333,0 0,7.74053 -4.75721,0 0,2.70113 4.75721,0 0,19.35134"
         id="path3036" />
      <path
         inkscape:connector-curvature="0"
         d="m 283.07898,155.58545 -2.98333,0 0,11.3286 c 0,2.70112 -0.40315,4.39437 -1.3304,5.76509 -1.24977,1.73355 -3.22523,2.74144 -5.5232,2.74144 -2.45923,0 -4.55563,-1.00789 -5.56351,-2.78176 -0.68536,-1.12883 -1.04819,-2.9027 -1.04819,-5.16036 l 0,-11.89301 -2.98334,0 0,11.89301 c 0,3.26554 0.56442,5.56351 1.73356,7.17612 1.65293,2.29797 4.31374,3.50744 7.61959,3.50744 3.4268,0 5.60383,-1.20947 7.09549,-3.9509 l 0,3.4268 2.98333,0 0,-22.05247"
         id="path3038" />
      <path
         inkscape:connector-curvature="0"
         d="m 288.1354,177.63792 2.98333,0 0,-12.86058 c 0,-4.11216 2.0964,-6.36982 6.24887,-6.77297 l 0,-2.94302 c -3.1849,0.16126 -5.07972,1.24978 -6.24887,3.66869 l 0,-3.14459 -2.98333,0 0,22.05247"
         id="path3040" />
      <path
         inkscape:connector-curvature="0"
         d="m 300.26149,177.63792 2.98333,0 0,-4.55563 3.46712,-4.27342 7.33738,8.82905 3.70901,0 -9.15157,-10.96576 8.58715,-11.08671 -3.66869,0 -10.2804,13.38468 0,-21.12521 -2.98333,0 0,29.793"
         id="path3042" />
      <path
         inkscape:connector-curvature="0"
         d="m 339.92984,155.58545 -2.98333,0 0,11.3286 c 0,2.70112 -0.40315,4.39437 -1.3304,5.76509 -1.24978,1.73355 -3.22523,2.74144 -5.5232,2.74144 -2.45923,0 -4.55563,-1.00789 -5.56351,-2.78176 -0.68536,-1.12883 -1.0482,-2.9027 -1.0482,-5.16036 l 0,-11.89301 -2.98333,0 0,11.89301 c 0,3.26554 0.56442,5.56351 1.73356,7.17612 1.65292,2.29797 4.31374,3.50744 7.61959,3.50744 3.4268,0 5.60383,-1.20947 7.09549,-3.9509 l 0,3.4268 2.98333,0 0,-22.05247"
         id="path3044" />
      <path
         inkscape:connector-curvature="0"
         d="m 378.62308,155.58545 -2.98334,0 0,3.91058 c -2.17702,-3.06395 -4.87815,-4.43468 -8.7081,-4.43468 -6.6117,0 -11.6108,4.99911 -11.6108,11.61081 0,6.57138 5.03941,11.48986 11.81238,11.48986 3.74932,0 6.16824,-1.24978 8.50652,-4.39437 l 0,3.87027 2.98334,0 0,-22.05247 m -11.61081,2.21734 c 4.83783,0 8.62747,3.78964 8.62747,8.70811 0,4.99909 -3.70901,8.90968 -8.46621,8.90968 -4.99909,0 -8.82905,-3.91059 -8.82905,-8.95 0,-4.79751 3.87028,-8.66779 8.66779,-8.66779"
         id="path3046" />
      <path
         inkscape:connector-curvature="0"
         d="m 405.7792,155.58545 -2.98333,0 0,3.91058 c -2.21734,-3.02364 -4.91847,-4.43468 -8.62747,-4.43468 -6.45044,0 -11.28828,4.99911 -11.28828,11.65112 0,6.45044 5.03941,11.44955 11.48985,11.44955 3.9509,0 6.69235,-1.61262 8.4259,-4.9991 l 0,1.49166 c 0,2.17703 -0.24189,3.54775 -0.88694,4.91847 -1.16914,2.53986 -3.82995,3.99121 -7.21643,3.99121 -2.45923,0 -4.35406,-0.72567 -5.92635,-2.21734 -0.76599,-0.68536 -1.20946,-1.3304 -2.17703,-3.02364 l -2.9027,0 c 1.61261,5.16035 5.5232,7.98242 11.08671,7.98242 3.82995,0 7.05518,-1.45135 8.94999,-3.95089 1.49167,-2.01577 2.05608,-4.35406 2.05608,-8.66779 l 0,-18.10157 m -11.44954,2.21734 c 4.7572,0 8.46621,3.74933 8.46621,8.54684 0,5.16036 -3.62838,9.07095 -8.4259,9.07095 -4.83783,0 -8.46621,-3.82996 -8.46621,-8.95 0,-5.03941 3.54775,-8.66779 8.4259,-8.66779"
         id="path3048" />
      <path
         inkscape:connector-curvature="0"
         d="m 410.89231,177.63792 2.98333,0 0,-22.05247 -2.98333,0 0,22.05247 m 0,-24.71328 2.98333,0 0,-5.07972 -2.98333,0 0,5.07972"
         id="path3050" />
      <path
         inkscape:connector-curvature="0"
         d="m 418.92388,177.63792 2.98333,0 0,-29.793 -2.98333,0 0,29.793"
         id="path3052" />
      <path
         inkscape:connector-curvature="0"
         d="m 449.04822,167.59941 c 0,-3.02365 -0.40316,-4.87815 -1.49167,-6.81329 -1.97545,-3.50742 -5.80541,-5.72477 -9.99819,-5.72477 -6.41013,0 -11.44954,5.03942 -11.44954,11.44955 0,6.53107 5.12004,11.65112 11.65111,11.65112 2.82207,0 5.48289,-1.0482 7.49865,-2.94302 1.57229,-1.49167 2.62049,-3.02365 3.22522,-4.83784 l -3.10427,0 c -1.24978,3.02365 -4.35406,5.03942 -7.70023,5.03942 -4.5153,0 -8.34526,-3.46712 -8.58715,-7.82117 l 19.95607,0 m -19.87544,-2.70113 c 0.8063,-4.2331 4.15248,-7.09549 8.34526,-7.09549 4.27342,0 7.53896,2.70113 8.54685,7.09549 l -16.89211,0"
         id="path3054" />
      <path
         inkscape:connector-curvature="0"
         d="m 486.89357,147.84492 -2.98333,0 0,11.24796 c -2.17702,-2.62049 -5.20068,-4.03153 -8.66779,-4.03153 -6.65202,0 -11.73175,4.99911 -11.73175,11.57049 0,6.53107 5.20068,11.53018 12.01396,11.53018 3.66869,0 6.16824,-1.33041 8.38558,-4.51532 l 0,3.99122 2.98333,0 0,-29.793 m -11.73175,9.95787 c 4.87815,0 8.86937,3.91059 8.86937,8.74842 0,4.83783 -3.87028,8.86937 -8.58716,8.86937 -5.03941,0 -8.90968,-3.87028 -8.90968,-8.90968 0,-4.83783 3.82996,-8.70811 8.62747,-8.70811"
         id="path3056" />
      <path
         inkscape:connector-curvature="0"
         d="m 514.45097,155.58545 -2.98333,0 0,3.91058 c -2.17702,-3.06395 -4.87815,-4.43468 -8.7081,-4.43468 -6.6117,0 -11.61081,4.99911 -11.61081,11.61081 0,6.57138 5.03942,11.48986 11.81238,11.48986 3.74932,0 6.16825,-1.24978 8.50653,-4.39437 l 0,3.87027 2.98333,0 0,-22.05247 m -11.6108,2.21734 c 4.83783,0 8.62747,3.78964 8.62747,8.70811 0,4.99909 -3.70901,8.90968 -8.46621,8.90968 -4.99909,0 -8.82905,-3.91059 -8.82905,-8.95 0,-4.79751 3.87027,-8.66779 8.66779,-8.66779"
         id="path3058" />
      <path
         inkscape:connector-curvature="0"
         d="m 522.33639,185.37845 3.18491,0 12.73963,-29.793 -3.18491,0 -7.45833,17.57747 -6.97454,-17.57747 -3.26554,0 8.54684,21.32679 -3.58806,8.46621"
         id="path3060" />
    </g>
    <path
       sodipodi:nodetypes="ssssssssscccsccsccscccscssccssccccc"
       inkscape:connector-curvature="0"
       id="path4251"
       d="m 437.04713,374.23952 c -11.08,-0.006 -20,8.92 -20,20 l 0,230.00003 c 0,11.08 8.92,19.9939 20,20 l 250,0.1378 c 11.08,0.01 20,-8.92 20,-20 l 0,-230.00001 c 0,-11.08 -8.92,-19.99389 -20,-20 z m 40,40 20,0 0,30 c 25,0 25.00014,-10.08613 50,-10 l 40,0.13782 0,149.99999 c 22.15739,-0.58909 40.77979,-8.72901 51.90625,-27.03125 17.71214,-29.13517 8.74077,-68.55381 -21.9375,-85.375 l 10.03125,-17.59374 c 40.11372,21.99474 51.75344,74.31023 28.59375,112.40624 -14.71193,24.20008 -39.26134,36.99887 -68.59375,37.59377 -6.58621,2e-4 -13.41382,-2e-4 -20,0 l 0,-150.00001 -20,-0.13782 c -24.99942,-0.17227 -25,10 -50,10 l 0,69.99999 c 0,15 5.00016,19.93184 20,20 l 20,0 0,20 -20,0 c -30,0 -40.14109,-10.00033 -40,-40 l 0,-69.99999 -20,0 0,-20 20,0 z"
       style="fill:#0f0f41;fill-opacity:1;stroke:none;filter:url(#filter4199)"
       inkscape:export-filename="/home/timo/devela/tad/logoehdotus_1.png"
       inkscape:export-xdpi="133.74889"
       inkscape:export-ydpi="133.74889" />
  </g>
</svg>
